# xmcd
#
# Track frame offsets:
#	150
#	7749
#	27282
#	48498
#	66316
#	84030
#	89505
#	111576
#	120175
#	143966
#	161213
#	164810
#	183764
#	196563
#	208888
#	231049
#	243904
#	256842
#	271034
#	304285
#	321542
#	335818
#
# Disc length: 4697 seconds
#
# Revision: 0
# Processed by: cddbd v1.5.1PL2 Copyright (c) Steve Scherf et al.
# Submitted via: dBpowerAMP V4.0
#
DISCID=34125716
DTITLE=Badly Drawn Boy - Have You Fed the Fish?
DYEAR=1900
DGENRE=
TTITLE0=Coming Into Land
TTITLE1=Have You Fed The Fish
TTITLE2=Born Again
TTITLE3=40 Days 40 Fights
TTITLE4=All Possibilities
TTITLE5=I Was Wrong
TTITLE6=You Were Right
TTITLE7=CentrePeace
TTITLE8=How?
TTITLE9=The Further I Slide
TTITLE10=Imaginary Lines
TTITLE11=Using Our Feet
TTITLE12=Tickets To What You Need
TTITLE13=What Is It Now?
TTITLE14=Bedside Story
TTITLE15=s
TTITLE16=f
TTITLE17=h
TTITLE18=k
TTITLE19=l
TTITLE20=u
TTITLE21=o
EXTD=
EXTT0=
EXTT1=
EXTT2=
EXTT3=
EXTT4=
EXTT5=
EXTT6=
EXTT7=
EXTT8=
EXTT9=
EXTT10=
EXTT11=
EXTT12=
EXTT13=
EXTT14=
EXTT15=
EXTT16=
EXTT17=
EXTT18=
EXTT19=
EXTT20=
EXTT21=
PLAYORDER=
